# xmcd CD database file
#
# Track frame offsets:
#	150
#	31986
#	75241
#	114946
#	147675
#	155338
#	181177
#	208851
#	233133
#
# Disc length: 3374 seconds
#
# Revision: 1
# Processed by: cddbd v1.5.1PL0 Copyright (c) Steve Scherf et al.
# Submitted via: CDex 1.51
#
DISCID=6d0d2c09
DTITLE=sacred earth - divine devotion
DYEAR=2004
DGENRE=New Age
TTITLE0=kyaponma
TTITLE1=ascention
TTITLE2=dancing shiva
TTITLE3=govinda hari 
TTITLE4=the offering
TTITLE5=shine
TTITLE6=song for peace
TTITLE7=raga with trees
TTITLE8=sacred ground
EXTD=YEAR: 2004
EXTT0=
EXTT1=
EXTT2=
EXTT3=
EXTT4=
EXTT5=
EXTT6=
EXTT7=
EXTT8=
PLAYORDER=
